<svg xmlns="http://www.w3.org/2000/svg" width="212" height="212" viewBox="0 0 212 212">
  <g id="Grupo_68" data-name="Grupo 68" transform="translate(-1344 -148)">
    <rect id="Rect치ngulo_34" data-name="Rect치ngulo 34" width="212" height="212" transform="translate(1344 148)" fill="#fff"/>
    <g id="Grupo_66" data-name="Grupo 66" transform="translate(1375.788 170.588)">
      <g id="Grupo_11" data-name="Grupo 11" transform="translate(0.003 15.213)">
        <path id="Trazado_93" data-name="Trazado 93" d="M383.709,1580.482l4.676-97.127-58.942,12.777,28.124,111.981Z" transform="translate(-329.443 -1456.569)" fill="#8d8d8d"/>
        <path id="Trazado_92" data-name="Trazado 92" d="M382.632,1572.855l-2.773-117.768L321.637,1475.3l30.494,110.492Z" transform="translate(-317.953 -1437.677)" fill="#979797"/>
        <path id="Trazado_91" data-name="Trazado 91" d="M384.5,1580.058l-3.4-124.968L319.25,1470.6,353.366,1585.8Z" transform="translate(-314.717 -1435.741)" fill="#b4b4b4"/>
        <path id="Trazado_90" data-name="Trazado 90" d="M262.416,1503.287,207.583,1403.4l-68.861,22.529,45.057,121.781Z" transform="translate(-133.551 -1395.528)" fill="#d1d0d0"/>
        <path id="Trazado_89" data-name="Trazado 89" d="M246.839,1507.5,183.93,1394.01l-76.512,24.654L159.7,1541.3Z" transform="translate(-98.422 -1391.241)" fill="#f6f6f6"/>
        <g id="Elipse_42" data-name="Elipse 42" transform="translate(82.478 9.345)" fill="#fff" stroke="#171938" stroke-width="3">
          <ellipse cx="2.5" cy="2.632" rx="2.5" ry="2.632" stroke="none"/>
          <ellipse cx="2.5" cy="2.632" rx="1" ry="1.132" fill="none"/>
        </g>
        <ellipse id="Elipse_52" data-name="Elipse 52" cx="2.5" cy="2.632" rx="2.5" ry="2.632" transform="translate(75.636 11.45)"/>
        <ellipse id="Elipse_53" data-name="Elipse 53" cx="2.5" cy="2.632" rx="2.5" ry="2.632" transform="translate(82.478 9.345)"/>
        <ellipse id="Elipse_54" data-name="Elipse 54" cx="2.5" cy="2.632" rx="2.5" ry="2.632" transform="translate(68.794 13.555)"/>
        <ellipse id="Elipse_55" data-name="Elipse 55" cx="2.5" cy="2.632" rx="2.5" ry="2.632" transform="translate(61.952 15.66)"/>
        <ellipse id="Elipse_56" data-name="Elipse 56" cx="2.5" cy="2.632" rx="2.5" ry="2.632" transform="translate(55.11 17.502)"/>
        <ellipse id="Elipse_57" data-name="Elipse 57" cx="2.5" cy="2.632" rx="2.5" ry="2.632" transform="translate(48.268 19.871)"/>
        <ellipse id="Elipse_58" data-name="Elipse 58" cx="2.5" cy="2.632" rx="2.5" ry="2.632" transform="translate(41.426 21.976)"/>
        <ellipse id="Elipse_59" data-name="Elipse 59" cx="2.5" cy="2.632" rx="2.5" ry="2.632" transform="translate(34.585 24.081)"/>
        <ellipse id="Elipse_60" data-name="Elipse 60" cx="2.5" cy="2.632" rx="2.5" ry="2.632" transform="translate(27.743 26.713)"/>
        <ellipse id="Elipse_61" data-name="Elipse 61" cx="2.5" cy="2.632" rx="2.5" ry="2.632" transform="translate(20.638 29.081)"/>
        <path id="Trazado_95" data-name="Trazado 95" d="M339.612,1386.782c3.566-6.825-10.788-21.312-9.342-7.592" transform="translate(-255.087 -1373.489)" fill="none" stroke="#222326" stroke-linecap="round" stroke-width="5"/>
        <path id="Trazado_96" data-name="Trazado 96" d="M339.612,1386.782c3.566-6.825-10.788-21.312-9.342-7.592" transform="translate(-262.048 -1371.384)" fill="none" stroke="#222326" stroke-linecap="round" stroke-width="5"/>
        <path id="Trazado_97" data-name="Trazado 97" d="M339.612,1386.782c3.566-6.825-10.788-21.312-9.342-7.592" transform="translate(-268.89 -1369.279)" fill="none" stroke="#222326" stroke-linecap="round" stroke-width="5"/>
        <path id="Trazado_98" data-name="Trazado 98" d="M339.612,1386.782c3.566-6.825-10.788-21.312-9.342-7.592" transform="translate(-275.732 -1367.173)" fill="none" stroke="#222326" stroke-linecap="round" stroke-width="5"/>
        <path id="Trazado_99" data-name="Trazado 99" d="M339.612,1386.782c3.566-6.825-10.788-21.312-9.342-7.592" transform="translate(-282.574 -1364.806)" fill="none" stroke="#222326" stroke-linecap="round" stroke-width="5"/>
        <path id="Trazado_100" data-name="Trazado 100" d="M339.612,1386.782c3.566-6.825-10.788-21.312-9.342-7.592" transform="translate(-289.152 -1362.726)" fill="none" stroke="#222326" stroke-linecap="round" stroke-width="5"/>
        <path id="Trazado_101" data-name="Trazado 101" d="M339.612,1386.782c3.566-6.825-10.788-21.312-9.342-7.592" transform="translate(-296.257 -1360.595)" fill="none" stroke="#222326" stroke-linecap="round" stroke-width="5"/>
        <path id="Trazado_102" data-name="Trazado 102" d="M339.612,1386.782c3.566-6.825-10.788-21.312-9.342-7.592" transform="translate(-303.027 -1358.16)" fill="none" stroke="#222326" stroke-linecap="round" stroke-width="5"/>
        <path id="Trazado_103" data-name="Trazado 103" d="M339.612,1386.782c3.566-6.825-10.788-21.312-9.342-7.592" transform="translate(-309.941 -1355.987)" fill="none" stroke="#222326" stroke-linecap="round" stroke-width="5"/>
        <path id="Trazado_104" data-name="Trazado 104" d="M339.612,1386.782c3.566-6.825-10.788-21.312-9.342-7.592" transform="translate(-317.046 -1353.619)" fill="none" stroke="#222326" stroke-linecap="round" stroke-width="5"/>
      </g>
      <g id="Grupo_10" data-name="Grupo 10" transform="translate(129.207 -0.57) rotate(8)">
        <path id="Trazado_105" data-name="Trazado 105" d="M1.368,0,0,66.15l2.765-5.282L5.281,66.15l2.765-5.282,2.318,5.282L13.2,60.868l2.515,5.282L17,.241Z" transform="translate(0 25.36)" fill="#f4ae3f"/>
        <path id="Trazado_106" data-name="Trazado 106" d="M0,5.3,4.629,17.86l5.779-.051L15.7,5.3,13.187,0,10.359,5.3,7.978,0,5.3,5.3,2.769,0Z" transform="translate(0 86.21)" fill="#ecd7c2"/>
        <path id="Trazado_107" data-name="Trazado 107" d="M0,0V4.465A2.583,2.583,0,0,0,2.817,6.717,2.768,2.768,0,0,0,5.73,4.465V0Z" transform="translate(4.629 104.069)" fill="#595959" stroke="#707070" stroke-width="1"/>
        <path id="Trazado_108" data-name="Trazado 108" d="M15.628,12.261,15.9.166.183,0,0,12.02Z" transform="translate(1.37 13.34)" fill="#bfbfbf"/>
        <rect id="Rect치ngulo_14" data-name="Rect치ngulo 14" width="10.789" height="4.474" transform="translate(1.389 17.285)" fill="#d9d9d9"/>
        <path id="Trazado_111" data-name="Trazado 111" d="M.125,0l5.4.133-.3,12.235H0Z" transform="translate(11.79 13.338)" fill="#a6a6a6"/>
        <path id="Trazado_109" data-name="Trazado 109" d="M0,13.34.182,4.065S.261,0,8.155,0s7.582,4.065,7.582,4.065V13.47Z" transform="translate(1.55 0)" fill="#d6586d"/>
        <path id="Trazado_110" data-name="Trazado 110" d="M1.448,0,0,65.962l2.753-5.209,2.53,5.209L6.559.083Z" transform="translate(10.434 25.531)" fill="#f19b10"/>
        <path id="Trazado_112" data-name="Trazado 112" d="M0,0A5.327,5.327,0,0,1,2.527,4.482V13.47h5l.1-8.989S8.129.026,0,0Z" transform="translate(9.706 0)" fill="#d1435b"/>
        <path id="Trazado_113" data-name="Trazado 113" d="M2.682,5.246,0,17.749H2.682l5.345-12.5L5.385,0Z" transform="translate(7.752 86.264)" fill="#e0be99"/>
      </g>
    </g>
    <path id="Trazado_1051" data-name="Trazado 1051" d="M0,0H212V212H0Z" transform="translate(1344 148)" fill="#c7ffed" opacity="0.79"/>
    <path id="Icon_awesome-play-circle" data-name="Icon awesome-play-circle" d="M42.027.563A41.464,41.464,0,1,0,83.491,42.027,41.457,41.457,0,0,0,42.027.563ZM61.371,46.04,31.945,62.926a4.02,4.02,0,0,1-5.969-3.511V24.639a4.022,4.022,0,0,1,5.969-3.511l29.426,17.89A4.026,4.026,0,0,1,61.371,46.04Z" transform="translate(1407.973 211.973)" fill="#008c89"/>
  </g>
</svg>
