<svg xmlns="http://www.w3.org/2000/svg" xmlns:xlink="http://www.w3.org/1999/xlink" width="212" height="212" viewBox="0 0 212 212">
  <defs>
    <filter id="Path_28" x="11.552" y="92.53" width="92.745" height="44.295" filterUnits="userSpaceOnUse">
      <feOffset dy="3" input="SourceAlpha"/>
      <feGaussianBlur stdDeviation="3" result="blur"/>
      <feFlood flood-opacity="0.161"/>
      <feComposite operator="in" in2="blur"/>
      <feComposite in="SourceGraphic"/>
    </filter>
    <filter id="Path_28-2" x="106.997" y="92.53" width="92.745" height="44.295" filterUnits="userSpaceOnUse">
      <feOffset dy="3" input="SourceAlpha"/>
      <feGaussianBlur stdDeviation="3" result="blur-2"/>
      <feFlood flood-opacity="0.161"/>
      <feComposite operator="in" in2="blur-2"/>
      <feComposite in="SourceGraphic"/>
    </filter>
  </defs>
  <g id="Group_61" data-name="Group 61" transform="translate(-882 -148)">
    <rect id="Rectangle_30" data-name="Rectangle 30" width="212" height="212" transform="translate(882 148)" fill="#fff"/>
    <g id="Group_59" data-name="Group 59" transform="translate(788.857 157.254)">
      <g id="Group_12" data-name="Group 12" transform="translate(104.281 69.834)">
        <g id="Group_5" data-name="Group 5" transform="translate(0 0)">
          <path id="Path_25" data-name="Path 25" d="M.261,1.6c8.254-2.185,29.9-4.936,51.062,0S83.45,19.077,84.906,21.343C78.675,17.054,55.127-4.067.261,1.6Z" transform="translate(-0.261 1.166)" fill="#00c6bf"/>
          <path id="Subtraction_2" data-name="Subtraction 2" d="M16.5,33A16.5,16.5,0,0,1,4.833,4.833,16.5,16.5,0,1,1,28.169,28.169,16.393,16.393,0,0,1,16.5,33ZM3.167,15.584h0c.026.3.655,7.451,4.679,10.9,3.774,3.236,7.512,3.507,10.719,3.507.208,0,.415,0,.618,0l.188,0,.188,0A23.562,23.562,0,0,1,11.6,26.414a23.437,23.437,0,0,1-5.036-4.8,22.114,22.114,0,0,1-3.4-6.025ZM23.674,9.491h0a3.386,3.386,0,0,0-2.348.969,3.685,3.685,0,0,0-.874,4.293,6.165,6.165,0,0,0,5.183,3.928,3.2,3.2,0,0,0,2.21-.853,3.783,3.783,0,0,0,.729-4.373c-.873-2.26-2.98-3.964-4.9-3.964Z" transform="translate(28.851 21.608)" fill="#00c6bf"/>
          <g transform="matrix(1, 0, 0, 1, -11.14, -79.09)" filter="url(#Path_28)">
            <path id="Path_28-3" data-name="Path 28" d="M51.795,138.6c-22.9-28.569-37.177-26.888-50.051-25.834s-23.153,7.425-24.694,9.406C18.728,112.967,38.832,126.233,51.795,138.6Z" transform="translate(43.5 -13.77)" fill="#00c6bf"/>
          </g>
        </g>
        <g id="Group_26" data-name="Group 26" transform="translate(104.372 0)">
          <path id="Path_25-2" data-name="Path 25" d="M84.906,1.6c-8.254-2.185-29.9-4.936-51.062,0S1.718,19.077.261,21.343C6.492,17.054,30.041-4.067,84.906,1.6Z" transform="translate(-0.261 1.166)" fill="#00c6bf"/>
          <path id="Subtraction_3" data-name="Subtraction 3" d="M16.5,33A16.5,16.5,0,0,1,4.833,4.833,16.5,16.5,0,0,1,28.17,28.169,16.393,16.393,0,0,1,16.5,33ZM29.836,15.583a21.97,21.97,0,0,1-3.4,6.027,23.45,23.45,0,0,1-5.035,4.8,23.545,23.545,0,0,1-7.953,3.571l.188,0c.263,0,.534.005.807.005,3.207,0,6.945-.271,10.718-3.507C29.236,22.991,29.831,15.658,29.836,15.583ZM9.329,9.493c-1.921,0-4.028,1.7-4.9,3.965a3.782,3.782,0,0,0,.729,4.371,3.2,3.2,0,0,0,2.21.854,6.165,6.165,0,0,0,5.183-3.929,3.684,3.684,0,0,0-.874-4.292A3.385,3.385,0,0,0,9.329,9.493Z" transform="translate(22.791 21.608)" fill="#00c6bf"/>
          <g transform="matrix(1, 0, 0, 1, -115.51, -79.09)" filter="url(#Path_28-2)">
            <path id="Path_28-4" data-name="Path 28" d="M-22.95,138.6c22.9-28.569,37.177-26.888,50.05-25.834s23.153,7.425,24.694,9.406C10.117,112.967-9.987,126.233-22.95,138.6Z" transform="translate(138.95 -13.77)" fill="#00c6bf"/>
          </g>
        </g>
      </g>
    </g>
    <rect id="Rectangle_34" data-name="Rectangle 34" width="212" height="212" transform="translate(882 148)" fill="#fff" opacity="0.79"/>
    <path id="Icon_awesome-play-circle" data-name="Icon awesome-play-circle" d="M42.027.563A41.464,41.464,0,1,0,83.491,42.027,41.457,41.457,0,0,0,42.027.563ZM61.371,46.04,31.945,62.926a4.02,4.02,0,0,1-5.969-3.511V24.639a4.022,4.022,0,0,1,5.969-3.511l29.426,17.89A4.026,4.026,0,0,1,61.371,46.04Z" transform="translate(946.411 212.411)" fill="#388bfd"/>
  </g>
</svg>
