<svg xmlns="http://www.w3.org/2000/svg" xmlns:xlink="http://www.w3.org/1999/xlink" width="213" height="212" viewBox="0 0 213 212">
  <defs>
    <linearGradient id="linear-gradient" x1="0.139" y1="0.479" x2="1.002" y2="0.526" gradientUnits="objectBoundingBox">
      <stop offset="0" stop-color="#189d8b"/>
      <stop offset="0.331" stop-color="#40b28a"/>
      <stop offset="0.657" stop-color="#69c685"/>
      <stop offset="1" stop-color="#c5ea75"/>
    </linearGradient>
    <filter id="Rectángulo_9" x="4.757" y="6.757" width="204.063" height="204.063" filterUnits="userSpaceOnUse">
      <feOffset dy="3" input="SourceAlpha"/>
      <feGaussianBlur stdDeviation="3" result="blur"/>
      <feFlood flood-opacity="0.161"/>
      <feComposite operator="in" in2="blur"/>
      <feComposite in="SourceGraphic"/>
    </filter>
  </defs>
  <g id="Grupo_70" data-name="Grupo 70" transform="translate(-651 -148)">
    <g id="Grupo_60" data-name="Grupo 60">
      <rect id="Rectángulo_29" data-name="Rectángulo 29" width="212" height="212" transform="translate(651 148)" fill="#fff"/>
      <g id="Grupo_62" data-name="Grupo 62">
        <g id="Componente_4_1" data-name="Componente 4 – 1" transform="translate(664.757 160.757)">
          <g transform="matrix(1, 0, 0, 1, -13.76, -12.76)" filter="url(#Rectángulo_9)">
            <rect id="Rectángulo_9-2" data-name="Rectángulo 9" width="131.567" height="131.567" rx="20" transform="translate(199.82 105.79) rotate(135)" fill="url(#linear-gradient)"/>
          </g>
          <path id="Sustracción_2" data-name="Sustracción 2" d="M82.342,164.75a13.011,13.011,0,0,1-4.084-.655,1.314,1.314,0,0,0-.169-.994,3.009,3.009,0,0,1-.151-.359,80.672,80.672,0,0,1,.493-11.509c-1.812-1.977-10.456-12.514-2.692-25.756.009-.016,1.064-1.928,2.108-4.22.969-2.126,2.138-5.042,2.2-6.866a8.7,8.7,0,0,0-1.492-4.712,13.423,13.423,0,0,0-1.588-2.064c.007-.19.1-1.849,1.2-1.849H78.2l0-.026c-.154-1.323-.313-2.692,1.851-3.669a9.322,9.322,0,0,0,3.08,1.232,1.8,1.8,0,0,0,.309.027,2.974,2.974,0,0,0,1.117-.287l.089-.036a3.613,3.613,0,0,1,1.422-.324c.053,0,.1,0,.142,0a11.842,11.842,0,0,1,3.7,1.354A17.964,17.964,0,0,1,94.217,107a18.5,18.5,0,0,0,3.073-3.07l.006-.008L96.681,107l.006,0a13.414,13.414,0,0,1,3.511-.85,1.033,1.033,0,0,1,.795.237,12.673,12.673,0,0,1-1.769,4.652,22.819,22.819,0,0,0-3.159,10.13,21.725,21.725,0,0,0,3.443,8.347,30.384,30.384,0,0,0,10.723,9.515,22.709,22.709,0,0,1,1.976,1.242L91.534,160.942A12.913,12.913,0,0,1,82.342,164.75Zm-13.178-7.793L3.741,91.534a13,13,0,0,1,0-18.384L73.149,3.741a13,13,0,0,1,18.384,0l69.409,69.408a13,13,0,0,1,0,18.384L123.59,128.886a50.267,50.267,0,0,0-5.758-6.037c-.8-1.067-1.517-2.113-2.212-3.125l-.008-.011c-2.365-3.443-4.6-6.7-9.363-9.733-2.383-5.018-5.469-8.411-8.736-12-1.36-1.5-2.765-3.042-4.132-4.728-.253-.22-.1-2.087.122-4.914l0-.02c.193-2.405.434-5.4.52-8.579.081-3,.261-5.232.42-7.206l0-.019a38.961,38.961,0,0,0-.421-12.078,24.359,24.359,0,0,0-5.485-8.886A16.465,16.465,0,0,0,81.8,47.566c-.785-.048-1.512-.077-2.154-.1a13.819,13.819,0,0,1-4.28-.54,12.758,12.758,0,0,1-2.342-1.785l-.006,0a28.8,28.8,0,0,0-6.661-4.645,2.638,2.638,0,0,0-1.211-.318c-1.662,0-3.2,1.839-4.579,5.466A14.478,14.478,0,0,0,59.56,50a10.475,10.475,0,0,0,.362,3.356c.3,1.116,1.5,2.326,2.568,3.393l0,0a8.141,8.141,0,0,1,1.933,2.393,3.61,3.61,0,0,1-.042,1.591,2.721,2.721,0,0,0,.042,1.626,3.071,3.071,0,0,0,.906,1.264,4.381,4.381,0,0,1,1.024,1.31A13.661,13.661,0,0,1,67.643,73.3a3.728,3.728,0,0,1-1.128,2.606,2.385,2.385,0,0,0-.8,1.9,8.681,8.681,0,0,1-.256,2.489,14.476,14.476,0,0,0-.387,3.3,11.391,11.391,0,0,1-1.1,4.611,12.9,12.9,0,0,0-.831,2.466,16.26,16.26,0,0,0-.274,3.155v.01a19.368,19.368,0,0,1-.369,3.913c-.191.911-.54,2.093-.943,3.462a48.9,48.9,0,0,0-2.274,10.694,32.11,32.11,0,0,0,.967,7.432,32.767,32.767,0,0,0,2.18,6.026,42.869,42.869,0,0,0,4.951,7.833c.367.482.683.9.91,1.229,1.282,1.875,1.271,3.471,1.248,6.653v.037c-.008,1.2-.017,2.56.039,4.249a81.852,81.852,0,0,1-.41,11.586Z" transform="translate(10.69 10.69)" fill="#101341"/>
        </g>
        <path id="Trazado_1036" data-name="Trazado 1036" d="M0,0H212V212H0Z" transform="translate(652 148)" fill="#c7ffed" opacity="0.79"/>
        <path id="Icon_awesome-play-circle" data-name="Icon awesome-play-circle" d="M42.027.563A41.464,41.464,0,1,0,83.491,42.027,41.457,41.457,0,0,0,42.027.563ZM61.371,46.04,31.945,62.926a4.02,4.02,0,0,1-5.969-3.511V24.639a4.022,4.022,0,0,1,5.969-3.511l29.426,17.89A4.026,4.026,0,0,1,61.371,46.04Z" transform="translate(715.411 212.411)" fill="#008c89"/>
      </g>
    </g>
  </g>
</svg>
