<svg xmlns="http://www.w3.org/2000/svg" xmlns:xlink="http://www.w3.org/1999/xlink" width="512" height="512" viewBox="0 0 512 512"><defs><clipPath id="b"><rect width="512" height="512"/></clipPath></defs><g id="a" clip-path="url(#b)"><g transform="translate(60.097 75.965)"><path d="M472.7,1739.758l12.343-256.405-155.6,33.729L403.688,1812.7Z" transform="translate(-329.441 -1412.644)" fill="#8d8d8d"/><path d="M482.658,1765.978l-7.321-310.893-153.7,53.366,80.5,291.687Z" transform="translate(-311.909 -1409.127)" fill="#979797"/><path d="M491.5,1784.989l-8.977-329.9L319.25,1496.042l90.062,304.1Z" transform="translate(-307.281 -1404.013)" fill="#b4b4b4"/><path d="M465.259,1667.094,320.506,1403.4l-181.784,59.473,118.945,321.488Z" transform="translate(-125.07 -1382.62)" fill="#d1d0d0"/><path d="M475.474,1693.618,309.4,1394.011l-201.982,65.083,138.021,323.733Z" transform="translate(-83.667 -1386.702)" fill="#f6f6f6"/><g transform="translate(217.733 24.668)" fill="#fff" stroke="#171938" stroke-width="3"><ellipse cx="6.599" cy="6.947" rx="6.599" ry="6.947" stroke="none"/><ellipse cx="6.599" cy="6.947" rx="5.099" ry="5.447" fill="none"/></g><ellipse cx="6.599" cy="6.947" rx="6.599" ry="6.947" transform="translate(199.671 30.226)"/><ellipse cx="6.599" cy="6.947" rx="6.599" ry="6.947" transform="translate(217.733 24.668)"/><ellipse cx="6.599" cy="6.947" rx="6.599" ry="6.947" transform="translate(181.61 35.783)"/><ellipse cx="6.599" cy="6.947" rx="6.599" ry="6.947" transform="translate(163.548 41.341)"/><ellipse cx="6.599" cy="6.947" rx="6.599" ry="6.947" transform="translate(145.486 46.203)"/><ellipse cx="6.599" cy="6.947" rx="6.599" ry="6.947" transform="translate(127.425 52.455)"/><ellipse cx="6.599" cy="6.947" rx="6.599" ry="6.947" transform="translate(109.363 58.013)"/><ellipse cx="6.599" cy="6.947" rx="6.599" ry="6.947" transform="translate(91.301 63.57)"/><ellipse cx="6.599" cy="6.947" rx="6.599" ry="6.947" transform="translate(73.24 70.517)"/><ellipse cx="6.599" cy="6.947" rx="6.599" ry="6.947" transform="translate(54.483 76.769)"/><path d="M355.1,1408.58c9.415-18.017-28.478-56.262-24.661-20.041" transform="translate(-131.961 -1373.49)" fill="none" stroke="#222326" stroke-linecap="round" stroke-width="5"/><path d="M355.1,1408.58c9.415-18.017-28.478-56.262-24.661-20.041" transform="translate(-150.338 -1367.932)" fill="none" stroke="#222326" stroke-linecap="round" stroke-width="5"/><path d="M355.1,1408.58c9.415-18.017-28.478-56.262-24.661-20.041" transform="translate(-168.4 -1362.377)" fill="none" stroke="#222326" stroke-linecap="round" stroke-width="5"/><path d="M355.1,1408.58c9.415-18.017-28.478-56.262-24.661-20.041" transform="translate(-186.461 -1356.817)" fill="none" stroke="#222326" stroke-linecap="round" stroke-width="5"/><path d="M355.1,1408.58c9.415-18.017-28.478-56.262-24.661-20.041" transform="translate(-204.523 -1350.567)" fill="none" stroke="#222326" stroke-linecap="round" stroke-width="5"/><path d="M355.1,1408.58c9.415-18.017-28.478-56.262-24.661-20.041" transform="translate(-221.89 -1345.077)" fill="none" stroke="#222326" stroke-linecap="round" stroke-width="5"/><path d="M355.1,1408.58c9.415-18.017-28.478-56.262-24.661-20.041" transform="translate(-240.646 -1339.452)" fill="none" stroke="#222326" stroke-linecap="round" stroke-width="5"/><path d="M355.1,1408.58c9.415-18.017-28.478-56.262-24.661-20.041" transform="translate(-258.517 -1333.022)" fill="none" stroke="#222326" stroke-linecap="round" stroke-width="5"/><path d="M355.1,1408.58c9.415-18.017-28.478-56.262-24.661-20.041" transform="translate(-276.77 -1327.286)" fill="none" stroke="#222326" stroke-linecap="round" stroke-width="5"/><path d="M355.1,1408.58c9.415-18.017-28.478-56.262-24.661-20.041" transform="translate(-295.526 -1321.034)" fill="none" stroke="#222326" stroke-linecap="round" stroke-width="5"/></g><g transform="translate(401.182 34.3) rotate(8)"><path d="M3.612,0,0,174.628l7.3-13.944,6.64,13.944,7.3-13.944,6.118,13.944,7.493-13.944,6.64,13.944L44.874.636Z" transform="translate(0 66.948)" fill="#f4ae3f"/><path d="M0,13.992,12.221,47.147l15.256-.134,13.97-33.02L34.812,0,27.347,13.992,21.061,0,13.989,13.992,7.31,0Z" transform="translate(0 227.584)" fill="#ecd7c2"/><path d="M0,0V11.787s.552,6.035,7.437,5.946,7.689-5.946,7.689-5.946V0Z" transform="translate(12.221 274.731)" fill="#595959" stroke="#707070" stroke-width="1"/><path d="M41.256,32.368,41.962.438.483,0,0,31.732Z" transform="translate(3.617 35.216)" fill="#bfbfbf"/><rect width="28.482" height="11.81" transform="translate(3.667 45.631)" fill="#d9d9d9"/><path d="M.329,0,14.582.35l-.792,32.3H0Z" transform="translate(31.125 35.21)" fill="#a6a6a6"/><path d="M0,35.216.481,10.73S.688,0,21.528,0,41.544,10.73,41.544,10.73V35.56Z" transform="translate(4.093 0)" fill="#d6586d"/><path d="M3.823,0,0,174.133l7.268-13.751,6.679,13.751L17.316.219Z" transform="translate(27.544 67.399)" fill="#f19b10"/><path d="M0,0C6.878,3.99,6.672,11.831,6.672,11.831V35.56H19.878l.275-23.729S21.46.069,0,0Z" transform="translate(25.622 0)" fill="#d1435b"/><path d="M7.08,13.848,0,46.854H7.08L21.191,13.848,14.217,0Z" transform="translate(20.464 227.728)" fill="#e0be99"/></g></g></svg>