<svg xmlns="http://www.w3.org/2000/svg" xmlns:xlink="http://www.w3.org/1999/xlink" width="512" height="512" viewBox="0 0 512 512"><defs><filter id="a" x="183.166" y="147.533" width="50.831" height="25.898" filterUnits="userSpaceOnUse"><feOffset dy="3" input="SourceAlpha"/><feGaussianBlur stdDeviation="3" result="b"/><feFlood flood-opacity="0.161"/><feComposite operator="in" in2="b"/><feComposite in="SourceGraphic"/></filter><filter id="c" x="173.984" y="127.705" width="59.896" height="45.65" filterUnits="userSpaceOnUse"><feOffset dy="3" input="SourceAlpha"/><feGaussianBlur stdDeviation="3" result="d"/><feFlood flood-opacity="0.161"/><feComposite operator="in" in2="d"/><feComposite in="SourceGraphic"/></filter><filter id="e" x="164.009" y="111.221" width="50.03" height="55.285" filterUnits="userSpaceOnUse"><feOffset dy="3" input="SourceAlpha"/><feGaussianBlur stdDeviation="3" result="f"/><feFlood flood-opacity="0.161"/><feComposite operator="in" in2="f"/><feComposite in="SourceGraphic"/></filter><filter id="g" x="167.007" y="131.109" width="60.11" height="45.908" filterUnits="userSpaceOnUse"><feOffset dy="3" input="SourceAlpha"/><feGaussianBlur stdDeviation="3" result="h"/><feFlood flood-opacity="0.161"/><feComposite operator="in" in2="h"/><feComposite in="SourceGraphic"/></filter><filter id="i" x="183.165" y="155.586" width="64.806" height="32.105" filterUnits="userSpaceOnUse"><feOffset dy="3" input="SourceAlpha"/><feGaussianBlur stdDeviation="3" result="j"/><feFlood flood-opacity="0.161"/><feComposite operator="in" in2="j"/><feComposite in="SourceGraphic"/></filter><filter id="k" x="178.782" y="158.624" width="39.2" height="20.87" filterUnits="userSpaceOnUse"><feOffset dy="3" input="SourceAlpha"/><feGaussianBlur stdDeviation="3" result="l"/><feFlood flood-opacity="0.161"/><feComposite operator="in" in2="l"/><feComposite in="SourceGraphic"/></filter><filter id="m" x="169.852" y="160.06" width="45.605" height="26.381" filterUnits="userSpaceOnUse"><feOffset dy="3" input="SourceAlpha"/><feGaussianBlur stdDeviation="3" result="n"/><feFlood flood-opacity="0.161"/><feComposite operator="in" in2="n"/><feComposite in="SourceGraphic"/></filter><filter id="o" x="163.34" y="166.206" width="38.314" height="31.608" filterUnits="userSpaceOnUse"><feOffset dy="3" input="SourceAlpha"/><feGaussianBlur stdDeviation="3" result="p"/><feFlood flood-opacity="0.161"/><feComposite operator="in" in2="p"/><feComposite in="SourceGraphic"/></filter><filter id="q" x="187.147" y="120.246" width="41.098" height="43.117" filterUnits="userSpaceOnUse"><feOffset dy="3" input="SourceAlpha"/><feGaussianBlur stdDeviation="3" result="r"/><feFlood flood-opacity="0.161"/><feComposite operator="in" in2="r"/><feComposite in="SourceGraphic"/></filter><filter id="s" x="204.781" y="126.097" width="43.421" height="56.819" filterUnits="userSpaceOnUse"><feOffset dy="3" input="SourceAlpha"/><feGaussianBlur stdDeviation="3" result="t"/><feFlood flood-opacity="0.161"/><feComposite operator="in" in2="t"/><feComposite in="SourceGraphic"/></filter><filter id="u" x="195.81" y="136.21" width="36.462" height="47.117" filterUnits="userSpaceOnUse"><feOffset dy="3" input="SourceAlpha"/><feGaussianBlur stdDeviation="3" result="v"/><feFlood flood-opacity="0.161"/><feComposite operator="in" in2="v"/><feComposite in="SourceGraphic"/></filter><filter id="w" x="183.466" y="165.3" width="46.997" height="46.615" filterUnits="userSpaceOnUse"><feOffset dy="3" input="SourceAlpha"/><feGaussianBlur stdDeviation="3" result="x"/><feFlood flood-opacity="0.161"/><feComposite operator="in" in2="x"/><feComposite in="SourceGraphic"/></filter><filter id="y" x="207.204" y="161.397" width="36.9" height="42.589" filterUnits="userSpaceOnUse"><feOffset dy="3" input="SourceAlpha"/><feGaussianBlur stdDeviation="3" result="z"/><feFlood flood-opacity="0.161"/><feComposite operator="in" in2="z"/><feComposite in="SourceGraphic"/></filter><filter id="aa" x="235.527" y="152.381" width="43.321" height="32.547" filterUnits="userSpaceOnUse"><feOffset dy="3" input="SourceAlpha"/><feGaussianBlur stdDeviation="3" result="ab"/><feFlood flood-opacity="0.161"/><feComposite operator="in" in2="ab"/><feComposite in="SourceGraphic"/></filter><filter id="ac" x="227.002" y="150.601" width="40.354" height="31.193" filterUnits="userSpaceOnUse"><feOffset dy="3" input="SourceAlpha"/><feGaussianBlur stdDeviation="3" result="ad"/><feFlood flood-opacity="0.161"/><feComposite operator="in" in2="ad"/><feComposite in="SourceGraphic"/></filter><filter id="ae" x="231.36" y="141.652" width="52.646" height="25.408" filterUnits="userSpaceOnUse"><feOffset dy="3" input="SourceAlpha"/><feGaussianBlur stdDeviation="3" result="af"/><feFlood flood-opacity="0.161"/><feComposite operator="in" in2="af"/><feComposite in="SourceGraphic"/></filter><filter id="ag" x="227.783" y="147.87" width="39.324" height="24.552" filterUnits="userSpaceOnUse"><feOffset dy="3" input="SourceAlpha"/><feGaussianBlur stdDeviation="3" result="ah"/><feFlood flood-opacity="0.161"/><feComposite operator="in" in2="ah"/><feComposite in="SourceGraphic"/></filter><filter id="ai" x="234.179" y="100.368" width="62.967" height="59.619" filterUnits="userSpaceOnUse"><feOffset dy="3" input="SourceAlpha"/><feGaussianBlur stdDeviation="3" result="aj"/><feFlood flood-opacity="0.161"/><feComposite operator="in" in2="aj"/><feComposite in="SourceGraphic"/></filter><filter id="ak" x="238.772" y="125.576" width="47.906" height="33.125" filterUnits="userSpaceOnUse"><feOffset dy="3" input="SourceAlpha"/><feGaussianBlur stdDeviation="3" result="al"/><feFlood flood-opacity="0.161"/><feComposite operator="in" in2="al"/><feComposite in="SourceGraphic"/></filter><filter id="am" x="249.183" y="129.085" width="39.796" height="27.145" filterUnits="userSpaceOnUse"><feOffset dy="3" input="SourceAlpha"/><feGaussianBlur stdDeviation="3" result="an"/><feFlood flood-opacity="0.161"/><feComposite operator="in" in2="an"/><feComposite in="SourceGraphic"/></filter><filter id="ao" x="259.19" y="130.464" width="33.873" height="24.556" filterUnits="userSpaceOnUse"><feOffset dy="3" input="SourceAlpha"/><feGaussianBlur stdDeviation="3" result="ap"/><feFlood flood-opacity="0.161"/><feComposite operator="in" in2="ap"/><feComposite in="SourceGraphic"/></filter><filter id="aq" x="206.398" y="96.783" width="33.593" height="63.489" filterUnits="userSpaceOnUse"><feOffset dy="3" input="SourceAlpha"/><feGaussianBlur stdDeviation="3" result="ar"/><feFlood flood-opacity="0.161"/><feComposite operator="in" in2="ar"/><feComposite in="SourceGraphic"/></filter><filter id="as" x="215.616" y="92.203" width="22.699" height="68.557" filterUnits="userSpaceOnUse"><feOffset dy="3" input="SourceAlpha"/><feGaussianBlur stdDeviation="3" result="at"/><feFlood flood-opacity="0.161"/><feComposite operator="in" in2="at"/><feComposite in="SourceGraphic"/></filter><filter id="au" x="221.925" y="115.544" width="24.729" height="40.448" filterUnits="userSpaceOnUse"><feOffset dy="3" input="SourceAlpha"/><feGaussianBlur stdDeviation="3" result="av"/><feFlood flood-opacity="0.161"/><feComposite operator="in" in2="av"/><feComposite in="SourceGraphic"/></filter><filter id="aw" x="219.404" y="121.567" width="29.353" height="46.244" filterUnits="userSpaceOnUse"><feOffset dy="3" input="SourceAlpha"/><feGaussianBlur stdDeviation="3" result="ax"/><feFlood flood-opacity="0.161"/><feComposite operator="in" in2="ax"/><feComposite in="SourceGraphic"/></filter><filter id="ay" x="268.325" y="198.084" width="29.761" height="44.663" filterUnits="userSpaceOnUse"><feOffset dy="3" input="SourceAlpha"/><feGaussianBlur stdDeviation="3" result="az"/><feFlood flood-opacity="0.161"/><feComposite operator="in" in2="az"/><feComposite in="SourceGraphic"/></filter><filter id="ba" x="212.462" y="166.241" width="43.208" height="67.965" filterUnits="userSpaceOnUse"><feOffset dy="3" input="SourceAlpha"/><feGaussianBlur stdDeviation="3" result="bb"/><feFlood flood-opacity="0.161"/><feComposite operator="in" in2="bb"/><feComposite in="SourceGraphic"/></filter><filter id="bc" x="221.518" y="161.496" width="28.13" height="31.416" filterUnits="userSpaceOnUse"><feOffset dy="3" input="SourceAlpha"/><feGaussianBlur stdDeviation="3" result="bd"/><feFlood flood-opacity="0.161"/><feComposite operator="in" in2="bd"/><feComposite in="SourceGraphic"/></filter><clipPath id="bf"><rect width="512" height="512"/></clipPath></defs><g id="be" clip-path="url(#bf)"><g transform="translate(27.095 27.095)"><g transform="translate(0 0)"><path d="M228.905,0C355.326,0,457.81,102.484,457.81,228.905S355.326,457.81,228.905,457.81,0,355.326,0,228.905,102.484,0,228.905,0Z" fill="#6b0dbc"/><g transform="translate(136.641 71.108)"><g transform="translate(0 19.018)"><path d="M-1302.28,2857.062a166.76,166.76,0,0,0-17.057-10.485c-7.646-3.854-10.709-4.267-20.469-5.939s-12.857-1.011-18.576-.76-4.3,1.771-4.3,1.771,1.643.19,1.516.885-2.021,1.135-2.021,1.893,1.9.444,2.021,1.138-1.641,1.012-1.516,1.642,2.022-.222,2.022.885-4.927,2.655-2.022,3.537,6.362-.189,14.513,0,10.756.107,19.037,1.115a81.037,81.037,0,0,1,14.086,2.927Z" transform="translate(1363.594 -2812.754)" fill="#f1df64"/><g transform="matrix(1, 0, 0, 1, -163.74, -117.22)" filter="url(#a)"><path d="M-1298.237,2864.339s4.839-3.9,13.046-2.646,19.784,7.65,19.784,7.65-11.233-1.224-19.439-2.475S-1298.237,2864.339-1298.237,2864.339Z" transform="translate(1490.4 -2707.91)" fill="#e19659"/></g><g transform="matrix(1, 0, 0, 1, -163.74, -117.22)" filter="url(#c)"><path d="M-1319.343,2815.86l41.9,27.65s-13.36-7.61-19.888-6.92C-1305.274,2828.423-1319.343,2815.86-1319.343,2815.86Z" transform="translate(1502.33 -2682.15)" fill="#d4c667"/></g><g transform="matrix(1, 0, 0, 1, -163.74, -117.22)" filter="url(#e)"><path d="M-1310.306,2815.043c.767,1.254-5.969-3.416-12.362-8.668a181.734,181.734,0,0,1-13.606-12.861s-3.72-2.822-5.16-5.083a4.2,4.2,0,0,1-.6-3.962l1.271-.6v-5.907a21.7,21.7,0,0,0,2.019,5.907,4.221,4.221,0,0,0,3.064,2.093l-3.439-.524s.094,1.662,4.487,6.5,13.511,12.288,13.511,12.288S-1311.071,2813.792-1310.306,2815.043Z" transform="translate(1515.28 -2660.74)" fill="#c36f51"/></g></g><g transform="translate(1.397 38.906)"><path d="M-1286.939,2886.488s-11.694-2.7-20.163-2.7-8.054,1.5-14.286,3.166-9.26,2.7-16.622,9.086c-7.418,6.443-9.518,7.765-14.32,10.7s-4.888,1.036-4.888,1.036a3.445,3.445,0,0,0,.345-2.129c-.287-.877-1.322-.318-1.5-1.38s1.049-1.9.806-2.875-1.709-.115-1.783-1.035,1.755-1.482,1.5-2.646-2.6-.2-2.531-2.012,4.471-9.058,9.5-11.907,5.843-3.118,13.446-4.714,11.056-1.064,16.966-1.668,4.253-.751,9.327-.551a84.7,84.7,0,0,1,10.974,1.356Z" transform="translate(1360.383 -2853.679)" fill="#f9e86f"/><g transform="translate(10.875)"><g transform="matrix(1, 0, 0, 1, -176.01, -137.11)" filter="url(#g)"><path d="M-1299.332,2851.592c.074.148-14.878-7.272-18.842-9.364s-8.3-6.879-8.3-6.879l-4.562-4.262-3.589-2.618a1.691,1.691,0,0,1-.522-2.166c.747-1.2,3.514-2.617,3.514-2.617s-1.982,2.073-1.047,3.064,4.786.9,4.786.9l-3.141.822a50.344,50.344,0,0,0,8.674,6.131c6.055,3.589,15.4,8.675,15.4,8.675l13.688,7.052S-1299.407,2851.441-1299.332,2851.592Z" transform="translate(1511.39 -2686.58)" fill="#c36f51"/></g><g transform="matrix(1, 0, 0, 1, -176.01, -137.11)" filter="url(#i)"><path d="M-1298.237,2894.065s7.137-5.221,11.81-8.234a32.894,32.894,0,0,1,11.519-5,29.292,29.292,0,0,1,10.468-.673l13.01,8.375s-10.894-2.906-18.969-2.906-8.078.789-13.928,2.906A59.054,59.054,0,0,0-1298.237,2894.065Z" transform="translate(1490.4 -2718.37)" fill="#e19659"/></g><g transform="matrix(1, 0, 0, 1, -176.01, -137.11)" filter="url(#k)"><path d="M-1287.113,2886.946s-17.5,2.137-20.852,2.766,18.714-1.8,18.714-1.8Z" transform="translate(1496.09 -2722.32)" fill="#c36f51"/></g><g transform="matrix(1, 0, 0, 1, -176.01, -137.11)" filter="url(#m)"><path d="M-1301.239,2890.245s-25.108,6.226-27.6,8.381c7.731-3.075,25.757-7.288,25.757-7.288Z" transform="translate(1507.7 -2724.19)" fill="#c36f51"/></g></g><g transform="matrix(1, 0, 0, 1, -165.13, -137.11)" filter="url(#o)"><path d="M-1323.5,2904.373l-13.51,6.51,5.248-1.65-12.052,8.749Z" transform="translate(1516.16 -2732.17)" fill="#c36f51"/></g></g><g transform="translate(13.917 3.809)"><path d="M-1271.25,2822.965l-12.71-7.85a41.449,41.449,0,0,0-2.692-6.206c-1.4-2.395-1.141-2.27-5.645-5.5s-5.627-3.414-12.374-7.433-8.908-4.128-14.653-9.345-7.2-6.527-10.079-11.219-2.313-6.874-1.7-7.18,3.031.756,3.031.756-.074-.841.449-1.122a3.107,3.107,0,0,1,1.644,0s.049-1.233.593-1.644,1.576,0,1.576,0,.168-.84.636-.95,1.234.5,1.234.5.163-1.4,3.564.449,6.778,2.776,16.242,12.4a168.806,168.806,0,0,1,21.613,26.1C-1276.2,2816.869-1271.25,2822.965-1271.25,2822.965Z" transform="translate(1331.599 -2755.574)" fill="#f1df64"/><g transform="matrix(1, 0, 0, 1, -177.65, -102.01)" filter="url(#q)"><path d="M-1269.091,2821.53l-19.992-15.432s3.451,1.771,8.262,4.956,7.762,5.529,7.762,5.529-8.07-9.393-10.677-11.944a24.213,24.213,0,0,0-4.471-3.6s1.409-.8,5.637,2.916,11.275,11.954,11.275,11.954a133.474,133.474,0,0,0-8.359-12.829c-3.45-4.3-5.443-4.373-5.443-4.373a9.688,9.688,0,0,1,5.443,2.332,31.972,31.972,0,0,1,5.347,6.706l8.324,16.079Z" transform="translate(1485.23 -2672.46)" fill="#c18c50"/></g><path d="M-1249.131,2802.193a152.767,152.767,0,0,0-5.575-17.918c-3.118-7.719-4.059-7.023-6.9-12.963s-2.921-5.508-4.38-9.509-1.15-4.913-.974-5.885,1.483-1.872,3.407-1.948a9.41,9.41,0,0,1,3.937.929s1.87.675,1.726,0-.266-1.416-2.08-1.992a18.028,18.028,0,0,0-5.176-.308l-2.3.663a12.984,12.984,0,0,0,.222-5.662,11,11,0,0,0-2.789-4.6,23.324,23.324,0,0,1,1.2,5.307,26.687,26.687,0,0,1-.222,5.664,4.7,4.7,0,0,0-1.2,3.759c.233,2.423,1.153,2.633,2.124,5.929s.221,3.8,1.761,7.256,6.543,13.636,10.847,21.456C-1251.875,2794.541-1249.131,2802.193-1249.131,2802.193Z" transform="translate(1296.942 -2743)" fill="#e19659"/><g transform="matrix(1, 0, 0, 1, -177.65, -102.01)" filter="url(#s)"><path d="M-1248.543,2812.164c.963,1.736,11.446,29.444,11.446,29.444s11.688,6.951,13.975,9.375c-6.162-7.74-8.361-15.84-10.352-19.727A152.845,152.845,0,0,0-1248.543,2812.164Z" transform="translate(1462.32 -2680.07)" fill="#d4c667"/></g><path d="M-1206.458,2873.222l1.733,8.353,5.537,4.288.362-.261a27.31,27.31,0,0,1-3.887-5.1C-1204.525,2877.439-1206.458,2873.222-1206.458,2873.222Z" transform="translate(1260.893 -2816.577)" fill="#e19659"/></g><g transform="translate(17.016 44.007)"><path d="M-1281.542,2899.688c-2.921,3.927-2.177,7.507-4.763,13.073s-5.584,9.2-17.741,20.7c0,0-4.887,4.932-7.211,6.379s-2.085-.59-2.085-.59-.731.233-.975,0,0-.927,0-.927a2.614,2.614,0,0,1-1.459.574,3.579,3.579,0,0,1-1.637-.574s.044,1.26-.531,1.681-1.769,0-1.769,0-.111,1.978-.752,2.3-2.512-1.835-3.539-4.159-.336-4.771,1.721-11.915,5.273-12.076,8.47-17.22,4.322-3.358,4.322-3.358a18.063,18.063,0,0,1,4.248-4.579,47.231,47.231,0,0,1,8.166-4.6,11.674,11.674,0,0,1,6.039-2.932,40.167,40.167,0,0,1,9.5-.268l9.83,1.64s-.662.569-2.589,2.307C-1281.69,2898.64-1281.542,2899.688-1281.542,2899.688Z" transform="translate(1324.476 -2868.006)" fill="#fcef63"/><g transform="matrix(1, 0, 0, 1, -180.75, -142.21)" filter="url(#u)"><path d="M-1250.708,2861.52a22.093,22.093,0,0,1-8.672-3.692c-1.645-1.347-5.129-2.625-6.2-5.154s-.972-7.58-.972-7.58a34.163,34.163,0,0,0,.781-5.9c0-2.406-.125-3.379-.781-3.719s-1.239.82-1.652,2.57a14.515,14.515,0,0,0,0,4.428,23.079,23.079,0,0,0-.885,7.915c.413,3.669,1.823,5.412,6.419,9.385s8.9,5.012,11.962,4.712Z" transform="translate(1473.98 -2693.2)" fill="#c36f51"/></g><g transform="matrix(1, 0, 0, 1, -180.75, -142.21)" filter="url(#w)"><path d="M-1269.629,2902.523s-5.347.587-11.766,5.954c-6.978,6.272-16.15,19.139-16.15,19.139s9.907-12.505,16.6-18.318,10.168-4.933,10.168-4.933-2.729,1.213-8.074,7.175-13.308,16.675-13.308,16.675,8.99-11.085,14.429-16.675,7.328-5.681,7.328-5.681a67.96,67.96,0,0,1-4.487,8,89.652,89.652,0,0,1-6.056,7.925l-7.252,8.075a45.176,45.176,0,0,0,6.206-5.907c3.589-4,5.439-6.69,8.15-10.093a36.227,36.227,0,0,0,2.692-3.514s-.393,3.01-3.739,8.15a147.358,147.358,0,0,1-9.645,12.41s7.159-7.869,10.692-12.41,3.594-5.785,3.594-5.785a40.212,40.212,0,0,0,1.545-6.125,13.94,13.94,0,0,0,0-4.294Z" transform="translate(1490.01 -2730.99)" fill="#e19659"/></g><g transform="matrix(1, 0, 0, 1, -180.75, -142.21)" filter="url(#y)"><path d="M-1235.552,2893.32a5.518,5.518,0,0,0-2.367,3.36c-.66,2.444.632,1.011-.631,6.318s-4.423,14.911-4.423,14.911,1.266-1.2,3.034-5.687a64.925,64.925,0,0,0,2.049-6.587,27.418,27.418,0,0,1,1.846-4.823c1.309-1.732,2.754-2.658,7.982-3.373,1.077-1.415,3.99-2.291,3.99-2.291A92.06,92.06,0,0,0-1235.552,2893.32Z" transform="translate(1459.18 -2725.92)" fill="#d4c667"/></g></g><g transform="translate(68.898 58.398)"><path d="M-1205.2,2872.625s4.942,11.151,15.62,17.564,18.618,5.663,25.579,7.243c0,0,2.425.118,2.267-.926a6.245,6.245,0,0,0-1.39-2.4,1.647,1.647,0,0,1,.213-1.46c.5-.6.943-.26,1.439-.681s.369-1.775.369-1.775,2.149.567,3.159,0,.885-2.274.885-2.274,1.848,1.744,2.89,1.744.314-2.746.314-2.746a27,27,0,0,0-4.719-5.986c-3.36-3.353-4.21-3.64-9.644-6.949s-6.415-3.715-14.112-4.6-9.357-1.127-14.246.221-5.309,5.176-5.309,5.176Z" transform="translate(1205.203 -2868.584)" fill="#f7e568"/><g transform="matrix(1, 0, 0, 1, -232.63, -156.6)" filter="url(#aa)"><path d="M-1177.861,2872.592s14.032,8.21,19.265,10.584,6.056,3.963,6.056,3.963c-4.785-3.515-24.971-9.279-24.971-9.279Z" transform="translate(1422.39 -2714.21)" fill="#c38e51"/></g><g transform="matrix(1, 0, 0, 1, -232.63, -156.6)" filter="url(#ac)"><path d="M-1197.46,2874.74c1.851,2.6,10.01,6.645,10.01,6.645s-5.175-3.887-2.721-3.887,13.324,4.193,14.2,4.193-9.119-3.5-9.727-4.466,5.637.273,5.637.273-6.609-1.312-6.609-1.753,6.609,0,6.609,0-5.88-.753-5.637-1.005,6.763-.568,6.763-.568-6.533-2.177-8.185-2.921-1.762.634,1.422.511,10.594.582,10.594.582l-9.33-2.235s-2.746-.243-2.235-.484,4.731-.255,4.276-.487a11.139,11.139,0,0,0-6.1-.441c-3.4.559-4.44.827-6.682,2.337A4.94,4.94,0,0,0-1197.46,2874.74Z" transform="translate(1433.46 -2711.9)" fill="#c38e51"/></g></g><g transform="translate(69.168 21.523)"><path d="M-1201.053,2836.774a107.968,107.968,0,0,1,4.429-11.557c2.422-5.151,3.174-5.187,5.486-9.156s3.76-6.725,3.76-6.725a15.833,15.833,0,0,0,.444-3.053,19.411,19.411,0,0,0-.222-3.272,2.842,2.842,0,0,1,1.637,2.211,13.816,13.816,0,0,1-.575,4.556,8.354,8.354,0,0,1,3.1-2.61c1.8-.753,3.285-.807,4.07-.265s-.929,2.432-.929,2.432.255-1.616-.576-1.769-2.743,1.15-2.743,1.15a30.918,30.918,0,0,0-5.707,6.37,42.761,42.761,0,0,0-4.025,8.538s-2.9,8.073-4.589,10.186a10.248,10.248,0,0,0-1.993,3.93Z" transform="translate(1202.588 -2794.621)" fill="#be6c4f"/><path d="M-1202.958,2825.791l-1.624-.915s1.021-4.632,2.566-11.37,3.485-9.041,5.406-14.607,1.957-5.9,2.273-7.659.66-2.061.66-2.061-3.922-4.5-6.68-4.562c-1.309.22-.427-1.546,1.651-.625a42.2,42.2,0,0,1,5.981,3.987,9.724,9.724,0,0,1,4.742-2.639c2.723-.486,3.332.393,5.831.344s2.7-1.02,3.7-.846,1.05.969.162,1.55-1.214.579-3.715.779-3.437-.5-5.982,0a9.513,9.513,0,0,0-4.2,2.013s1.409.071.8,4.2a56,56,0,0,1-3.22,12.306c-1.61,4.156-2.6,5.557-4.6,10.065S-1202.958,2825.791-1202.958,2825.791Z" transform="translate(1204.581 -2783.724)" fill="#e19659"/><g transform="translate(3.879 24.62)"><path d="M-1185.416,2852.644a89.359,89.359,0,0,1,18.557-1.585c9.541.3,17.36,3.444,25.11,4.393s5.258-.122,5.89-.6.933-.118,1.278-.671a2.449,2.449,0,0,0,.1-1.541,3.3,3.3,0,0,0,1.71-.433c.46-.428.13-1.277.13-1.277s.935.541,1.38.356.4-1.092.4-1.092.863.891,1.266.345-.923-4.051-2.252-5.157a17.384,17.384,0,0,0-6.013-2.939c-2.85-.906-5.419-1.434-12.785-1.912s-16.679,0-16.679,0a61,61,0,0,0-9.95.862,100.87,100.87,0,0,0-11.271,2.822s-3.111,8.694-5.124,11.28C-1191.047,2853.123-1185.416,2852.644-1185.416,2852.644Z" transform="translate(1194.534 -2840.322)" fill="#f7e568"/><g transform="matrix(1, 0, 0, 1, -236.78, -144.35)" filter="url(#ae)"><path d="M-1174.835,2847.933c-7.085,3.665-4.9,3.739-4.9,3.739s13.116-2.955,14.774-2.841c-9.649,2.989-8.141,3.289-8.141,3.289s20.3.617,20.956,1.347c-15.755-.525-17.262,1.867-17.262,1.867l-17.383-.6s.579-1.609,1.217-3.064A18.716,18.716,0,0,1-1174.835,2847.933Z" transform="translate(1427.15 -2700.27)" fill="#e19659"/></g><g transform="matrix(1, 0, 0, 1, -236.78, -144.35)" filter="url(#ag)"><path d="M-1194.747,2868.771a30.515,30.515,0,0,0,3.519-6.153s13.7-1.372,17.806.974a133.856,133.856,0,0,0-14.019,2.034C-1192.775,2866.866-1194.747,2868.771-1194.747,2868.771Z" transform="translate(1431.53 -2708.35)" fill="#be6c4f"/></g></g></g><g transform="translate(79.194 8.165)"><path d="M-1161.106,2810.759c7.848-1.213,13.219-1.272,21.869-2.374s8.991-1.746,16.257-3.909,15.445-6.6,15.882-7.564-1.327-1.018-1.327-1.018,1.157-.869.493-1.478-3.148-.956-3.148-.956.575-.409.4-.752-1.106-.618-1.106-.618,2-.823,2.079-1.319-1.77-.672-1.77-.672,2.858-1.3,1.21-1.8-4.476-.427-10.894.767a133.123,133.123,0,0,0-14.781,4s-8.671,2.635-14.555,4.736a85.5,85.5,0,0,0-8.981,3.67l-11.148,11.77S-1168.954,2811.971-1161.106,2810.759Z" transform="translate(1175.37 -2772.781)" fill="#f7e568"/><path d="M-1181.531,2814.62l18.168-26.317s.243,2.522-1.943,6.8-2.523,5.028-6.8,10.32A62.1,62.1,0,0,1-1181.531,2814.62Z" transform="translate(1181.531 -2772.953)" fill="#d4c667"/><g transform="matrix(1, 0, 0, 1, -242.93, -106.37)" filter="url(#ai)"><path d="M-1180.96,2794.634a113.006,113.006,0,0,0,8.405-8.315,40.69,40.69,0,0,0,5.055-7.077l6.065-8.844s3.368-6.879,6.849-10.1,5.487-1.684,7.011-3.5-.919-3.776-.919-3.776a3.656,3.656,0,0,1,2.484,1.225,2.924,2.924,0,0,1,.171,3.062c-.493,1.1-3.292,1.183-5.717,2.757a18.321,18.321,0,0,0-3.983,3.54,57.729,57.729,0,0,1,9.7-3.746,14.758,14.758,0,0,1,8.133-.237c2.424.426,1.566,1.939,1.566,1.939s-.928,1.684-1.769,1.873-1.6-1.124-.137-2.314c0,0-2.306-.96-6.568,0a23.06,23.06,0,0,0-8.678,3.369c-3.276,1.932-3.549,2.536-4.424,4.356s.417,1.286-1.5,4.525a92.533,92.533,0,0,1-6.16,8.442l-8.984,9.427-2.076,2.313Z" transform="translate(1424.14 -2646.65)" fill="#b7684c"/></g><g transform="matrix(1, 0, 0, 1, -242.93, -106.37)" filter="url(#ak)"><path d="M-1170.4,2826.091a65.977,65.977,0,0,1,12.825-8.569,115.9,115.9,0,0,1,17.081-6.555s-10.755,4.24-17.081,7.649-8.224,5.98-8.224,5.98Z" transform="translate(1418.17 -2679.39)" fill="#e09558"/></g><g transform="matrix(1, 0, 0, 1, -242.93, -106.37)" filter="url(#am)"><path d="M-1146.467,2828.176s1.725-1.682,6.9-3.911,14.9-5.233,14.9-5.233-10.509,4.311-14.9,6.384-4.026,2.241-4.026,2.241Z" transform="translate(1404.65 -2683.95)" fill="#e19659"/></g><g transform="matrix(1, 0, 0, 1, -242.93, -106.37)" filter="url(#ao)"><path d="M-1123.46,2828.76l15.873-6.555a28.524,28.524,0,0,1-4.427,3.045c-2.718,1.54-6.442,3.107-6.442,3.107Z" transform="translate(1391.65 -2685.74)" fill="#e09558"/></g></g><g transform="translate(51.662)"><path d="M-1221.885,2803.041l1.316-7.285a53.358,53.358,0,0,1,.954-15.075c1.709-7.792,4.61-8.914,6.193-15.931s.958-9.66,0-13.315-1.3-4.6-2.461-5.508-1.445,1.1-1.445,1.1-.774-.952-1.637-.842-1.814,1.283-1.814,1.283a2.625,2.625,0,0,0-1.68-.441,3.306,3.306,0,0,0-1.549,1.061s.188-2.013-.709-2.166-2.875,1.546-2.875,1.546,1.328-3.738,0-2.078a27.538,27.538,0,0,0-5.309,8.715c-1.729,4.666-2.6,6.459-2.521,12.3a27.577,27.577,0,0,0,2.831,11.059Z" transform="translate(1239.516 -2740.304)" fill="#f6e467"/><g transform="matrix(1, 0, 0, 1, -215.4, -98.2)" filter="url(#aq)"><path d="M-1231.037,2790.261l1.8-3s-.638-5.094-1.1-11.583.7-10.6-1.784-16.966-2.947-6.3-5.693-9.777-3.906-4.335-5.291-4.142a2.168,2.168,0,0,0-1.725,1.553s2.2-1.034,5.234,2.242,4.5,3.314,6.9,10.871.089,17.152.089,17.152Z" transform="translate(1460.22 -2641.99)" fill="#be6c4f"/></g><g transform="matrix(1, 0, 0, 1, -215.4, -98.2)" filter="url(#as)"><path d="M-1218.933,2784.8s-1.309-.948-2.359-5.117-1.15-3.71-1.725-14.549-.575-22.6-.575-22.6c-.287-7.419,1.022-7.952,2.013-8.224s2.186.417,1.955.92-2.444-1.05-2.933,3.393.518,14.839.518,14.839l.747,8.7.863,8.784s.546,2.861.92,6.325S-1218.933,2784.8-1218.933,2784.8Z" transform="translate(1448.25 -2636.04)" fill="#be6c4f"/></g><path d="M-1203.257,2800.544l-9.321,17.569-2.346,5.6,4.56,10.787,1.576-7.153a34.1,34.1,0,0,1,.539-12.463A74.082,74.082,0,0,1-1203.257,2800.544Z" transform="translate(1227.931 -2771.705)" fill="#be6c4f"/><g transform="matrix(1, 0, 0, 1, -215.4, -98.2)" filter="url(#au)"><path d="M-1209.111,2810.292c-.222,1.33,1.434-19.052,2.138-21.966s-.462,10.3.68,10.3,3.888-10.3,3.888-10.3a35.476,35.476,0,0,1-1.559,10.128C-1205.64,2803.946-1208.889,2808.96-1209.111,2810.292Z" transform="translate(1440.06 -2666.36)" fill="#e19659"/></g><g transform="matrix(1, 0, 0, 1, -215.4, -98.2)" filter="url(#aw)"><path d="M-1214.924,2824.392l2.339,5.6s-.786-3.383.747-8.971,5.953-14.134,8.267-19.273C-1207.076,2804.913-1214.924,2824.392-1214.924,2824.392Z" transform="translate(1443.33 -2674.18)" fill="#d4c667"/></g></g><g transform="translate(112.47 133.68)"><path d="M-1509.146,4704.483c1.362,4.286,2.378,9.229,2.378,9.229l7.834,26.664s28.361,54.422,28.683,56.729c10.562,2.558,12.381-6.944,12.381-6.944s-16.648-27.677-26.282-49.785-7.946-28.747-12.256-38.67C-1499.753,4695.19-1510.507,4700.194-1509.146,4704.483Z" transform="translate(1509.264 -4698.573)" fill="#9db087"/><path d="M36.9,483.994s2.492,3.96,3.323,11.777,3.645,12.155,7.485,22.01,10.257,22.9,10.257,22.9S67.22,560.887,72.6,570.95s6.666,10.825,6.666,10.825a18.058,18.058,0,0,1-6.491-.738c-1.971-4.838-4.8-9.923-9.165-18.752s-8.277-16.327-8.277-16.327L44.117,524.309s-5.568-18.929-7.557-25.894c-1.216-6.208-2.945-9.172-2.743-11.241S36.9,483.994,36.9,483.994Z" transform="translate(-32.903 -483.377)" fill="#879674"/><path d="M36.642,483.41s2.828,4.214,3.659,12.031,3.645,12.156,7.485,22.011,10.257,22.9,10.257,22.9,9.259,20.208,14.637,30.271,6.875,9.979,6.875,9.979a11.723,11.723,0,0,1-6.7.107c-1.971-4.839-4.8-9.923-9.165-18.752s-8.277-16.327-8.277-16.327L44.2,523.979s-5.568-18.929-7.556-25.894c-1.216-6.208-2.882-9.034-2.68-11.1S36.642,483.41,36.642,483.41Z" transform="translate(-33.854 -482.177)" fill="#616c56"/></g><g transform="translate(123.21 225.043)"><g transform="translate(0)"><path d="M-1473.611,4998.136c-3.54-.247-6.358-.775-8.149-2.021a12.56,12.56,0,0,1-3.813-4.336l15.834-38.029,4.911-13.669s5.871-10.541,7.154-15.315.265-11.948.265-11.948a12.409,12.409,0,0,1,12.439-4.981c6.363,4.364,20.713,10.679,20.713,10.679s-8.931,4.453-18.076,15.495c-7.821,11.735-10.1,19.97-15.757,34.972s-9.515,28.115-9.515,28.115A12.294,12.294,0,0,1-1473.611,4998.136Z" transform="translate(1485.573 -4907.613)" fill="#9db087"/><path d="M265.443,656.208l1.087-.741a39.6,39.6,0,0,0,6.374,7.66,17.363,17.363,0,0,0,7.053,3.543,14.44,14.44,0,0,1-8.365-2.362C267.959,661.666,265.443,656.208,265.443,656.208Z" transform="translate(-234.553 -653.791)" fill="#879674"/><path d="M-1473.611,5001.125c-3.54-.243-6.358-.773-8.149-2.016a12.566,12.566,0,0,1-3.813-4.338l15.834-38.031,4.911-13.667s5.871-10.538,7.154-15.316.129-12,.129-12a11.1,11.1,0,0,1,3.038-2.843s4.388,6.355,8.328,8.3c6.261,3.1,15.679,4.383,15.679,4.383-5.3,4.569-5.148,3.887-11.832,11.407-7.821,11.736-10.1,19.965-15.757,34.968s-9.515,28.118-9.515,28.118A12.294,12.294,0,0,1-1473.611,5001.125Z" transform="translate(1485.573 -4910.606)" fill="#616c56"/><path d="M-1403.021,4944.874v4.469l2.139-3.11Z" transform="translate(1438.93 -4928.668)" fill="#879674"/></g></g><g transform="translate(113.589 83.217)"><path d="M-1106.416,2962.447c4.262-13.082,20.149-37.634,29.121-45.363-.662,1.383-.353-1.038-4.666,11.178s-12.052,33.278-12.587,37.683,1.291,10.334,1.291,10.334a71.7,71.7,0,0,0-5.982-8.971C-1100.835,2964.979-1106.416,2962.447-1106.416,2962.447Z" transform="translate(1106.752 -2917.084)" fill="#9db087"/><g transform="matrix(1, 0, 0, 1, -277.32, -181.42)" filter="url(#ay)"><path d="M-1095.428,2969.188s-2.26,19.781-5.248,24.979-6.513-3.3-6.513-3.3Z" transform="translate(1384.51 -2765.1)" fill="#55614e" opacity="0.74"/></g><path d="M-1058.913,2924.017l-9.79,17.9s3.983-6.036,4.928-6.4-1.151,4.927-1.151,4.927Z" transform="translate(1085.444 -2921)" fill="#879674"/></g><g transform="translate(81.073 118.509)"><path d="M-1549.519,4686.1a26.047,26.047,0,0,0-3.268-7.654c-2.707-4.853-23.256-9.438-26.567-11.606-5.961-3.675,2.721-3.11,2.721-3.11s18.094-.391,26.3,3.659a21.773,21.773,0,0,1,12.864,14.056C-1539.35,4686.693-1542.792,4687.208-1549.519,4686.1Z" transform="translate(1581.444 -4663.698)" fill="#9db087"/><path d="M-1578.122,4672.1s10.518.1,17.226,1.818,10.171,3.784,13.678,7.8,4.736,10.041,4.736,10.041h-2.035s-3.694-8.847-10.792-12.006S-1578.122,4672.1-1578.122,4672.1Z" transform="translate(1580.436 -4668.882)" fill="#879674"/><path d="M-1576.276,4671.09a139.208,139.208,0,0,1,16.467,2.716c6.708,1.718,9.577,3.134,13.084,7.153a27.894,27.894,0,0,1,5.03,9.837s-1.761,2.467-4.852-.428c-1.319-3.2-1.6-8.41-8.7-11.57S-1574.773,4672.182-1576.276,4671.09Z" transform="translate(1578.524 -4667.875)" fill="#616c56"/></g><g transform="translate(57.726 69.293)"><path d="M-1607.406,4601.115c-1.688,1.322-1.294,2.458-4.773,2.937s-6.794-.114-11.166-1.954-5.237-4.558-7.636-9.392-1.644-14.038-2.477-20.977a46.753,46.753,0,0,1-.138-13.342,5.523,5.523,0,0,1,4.565-5.292l3.855-.807s1.85-2.608,4.093-2.7,4.88,2.35,4.88,2.35a97.388,97.388,0,0,1,6.843,11.734c2.9,6.07,2.547,6.445,4.773,12.54s3.428,6.814,4.132,11.829-1.4,9.457-4.968,10.723A5.422,5.422,0,0,1-1607.406,4601.115Z" transform="translate(1634.462 -4549.573)" fill="#9db087"/><g transform="matrix(1, 0, 0, 1, -221.46, -167.5)" filter="url(#ba)"><path d="M-1228.245,2908c2.843,1.391,4.467,8.12,7.385,14.563s1.045,4.268,4.426,11.8,7.859,12.687,9.628,17.962-2.047,1.906-2.552,3.137,2.278,2.026,0,2.287a21.787,21.787,0,0,1-9.11-1.243c-3.728-1.232-7.4-2.3-10.583-12.1s-2.416-27.145-2.416-27.145S-1231.088,2906.612-1228.245,2908Z" transform="translate(1453.01 -2735.64)" fill="#4c463e" opacity="0.52"/></g><path d="M-1210.727,2925.775s2.419,5.01,4.47,9.97.924,4.434,3.735,9.868a132.18,132.18,0,0,0,7.707,12.383,52.3,52.3,0,0,0-2.55-6.724c-1.769-3.916-4.525-8.945-4.525-8.945a124.9,124.9,0,0,0-5.055-11.877C-1209.153,2926.312-1210.727,2925.775-1210.727,2925.775Z" transform="translate(1219.783 -2913.244)" fill="#708170" opacity="0.79"/><path d="M-1195.132,2935.656l7.3,14.558a56.974,56.974,0,0,0-3.049-7.592A56.484,56.484,0,0,0-1195.132,2935.656Z" transform="translate(1210.973 -2918.828)" fill="#708170"/><path d="M-1185.48,2909.513s.114,2,2.473,8.731,6.959,18.175,6.959,18.175a7.929,7.929,0,0,0-.287-4.141,47.97,47.97,0,0,0-2.7-6.615,60.467,60.467,0,0,1-2.99-7.189c-1.078-3.364-.591-4.36-1.323-6.269A5.426,5.426,0,0,0-1185.48,2909.513Z" transform="translate(1205.518 -2904.057)" fill="#4c463e" opacity="0.64"/><g transform="matrix(1, 0, 0, 1, -221.46, -167.5)" filter="url(#bc)"><path d="M-1210.727,2899.76s6.046.37,10.13,10.493c-1.207-4.431-.977-11.561-.977-11.561s-2.646-2.043-4.831-1.841S-1210.727,2899.76-1210.727,2899.76Z" transform="translate(1441.25 -2729.34)" fill="#564d3f"/></g><path d="M-1162.077,2972.3l1.667,4.368a9.439,9.439,0,0,1,1.439,3.885,9.026,9.026,0,0,1-.5,4.771c-.547,1.632-1.683,1.753-1.683,1.753l1.266-3.966a6.886,6.886,0,0,0,0-3.106c-.4-1.611-1.065-1.409-1.611-3.338A19.776,19.776,0,0,1-1162.077,2972.3Z" transform="translate(1192.295 -2939.529)" fill="#708170"/><path d="M-1165.036,2977.569l.973,6.056a4.5,4.5,0,0,1,.42,2.76,19.466,19.466,0,0,1-1.393,4.684,11.632,11.632,0,0,1-.518-2.9c-.075-1.607.331-.95.518-3.417S-1165.036,2977.569-1165.036,2977.569Z" transform="translate(1194.264 -2942.51)" fill="#4c463e" opacity="0.59"/></g></g></g></g></g></svg>