<svg xmlns="http://www.w3.org/2000/svg" width="163.177" height="163.177" viewBox="0 0 163.177 163.177">
  <g id="Group_14" data-name="Group 14" transform="translate(-383.166 -63.166)">
    <g id="Group_16" data-name="Group 16" transform="translate(388.255 68.255)">
      <g id="Group_17" data-name="Group 17" transform="translate(0 0)">
        <path id="Subtraction_1" data-name="Subtraction 1" d="M2.234,58.822,58.822,2.234a25,25,0,0,1,35.355,0l56.589,56.589a25,25,0,0,1,0,35.355L94.178,150.766a25,25,0,0,1-35.355,0L2.234,94.178A25,25,0,0,1,2.234,58.822Z" transform="translate(0 0)" fill="#212121"/>
        <g id="Group_13" data-name="Group 13" transform="translate(8.963 8.963)">
          <path id="Subtraction_2" data-name="Subtraction 2" d="M67.537,140.163a24.922,24.922,0,0,1-17.678-7.322L2.234,85.215a24.978,24.978,0,0,1,0-35.355L49.859,2.234a24.979,24.979,0,0,1,35.356,0L132.841,49.86a24.978,24.978,0,0,1,0,35.355L85.215,132.841a24.922,24.922,0,0,1-17.678,7.322ZM63.8,75.9h0c.085.041.175.083.284.131V90.906a10.062,10.062,0,0,0-5.776,9.337c0,5.549,4.138,10.064,9.225,10.064,4.627,0,8.56-3.769,9.149-8.768,2.2-.75,6.29-2.386,8.989-4.919a10.56,10.56,0,0,0,6.181,1.945c5.549,0,10.064-4.138,10.064-9.224s-4.515-9.225-10.064-9.225a10.764,10.764,0,0,0-5.049,1.244l-10.87-10.5a10.744,10.744,0,0,0,.824-4.164,10.937,10.937,0,0,0-.369-2.829L86.945,53.68a10.064,10.064,0,1,0-1.264-16.731c-2.74-2.576-6.9-4.222-9.141-4.974a9.226,9.226,0,0,0-18.229,2.019,9.187,9.187,0,0,0,5.776,8.558v14.81a8.978,8.978,0,0,0-1.5.847L54.8,50.692a10.064,10.064,0,1,0-15.76.877,19.438,19.438,0,0,0-2.457,6.745h-.074a10.063,10.063,0,1,0,0,20.127,10.256,10.256,0,0,0,1.12-.062,29.422,29.422,0,0,0,1.56,4.7,8.791,8.791,0,0,0-2.679,6.268c0,5.086,4.514,9.224,10.063,9.224s10.064-4.138,10.064-9.224a8.522,8.522,0,0,0-.8-3.6L63.8,75.9ZM75.928,96.057h0a9.592,9.592,0,0,0-5.492-5.369V76.255a8.826,8.826,0,0,0,1.321-.6L82.475,86a8.534,8.534,0,0,0-.2,6.16,22.619,22.619,0,0,1-6.343,3.9ZM51.336,81.214h0a10.816,10.816,0,0,0-4.764-1.1,10.95,10.95,0,0,0-2.453.276A23.89,23.89,0,0,1,42.7,76.308,10.076,10.076,0,0,0,46.348,70.5H58.991c.105.281.224.56.352.83l-8.007,9.888Zm7.276-17.066H45.643a10.085,10.085,0,0,0-3.7-4.245A20.636,20.636,0,0,1,43.7,54.542a10.119,10.119,0,0,0,5.9-.047l9.221,8.9c-.08.25-.15.5-.209.75Zm14.237-5.679h0a8.923,8.923,0,0,0-2.412-1.327V42.753a9.227,9.227,0,0,0,5.613-5.2A22.451,22.451,0,0,1,82.381,41.5a10.092,10.092,0,0,0,.283,7.489l-9.814,9.477Z" transform="translate(0 0)" fill="#fff"/>
        </g>
      </g>
    </g>
  </g>
</svg>
