<svg xmlns="http://www.w3.org/2000/svg" width="164.808" height="174.807" viewBox="0 0 164.808 174.807">
  <g id="Grupo_49" data-name="Grupo 49" transform="translate(-72 -184.513)">
    <path id="Trazado_996" data-name="Trazado 996" d="M102.846,128.958,122.774,0l-48.8,1.7L0,132.549Z" transform="matrix(-0.999, -0.035, 0.035, -0.999, 194.699, 353.569)" fill="#212121"/>
    <path id="Trazado_997" data-name="Trazado 997" d="M28.875.532,48.8,129.49,0,127.785,13.645,0Z" transform="matrix(0.999, -0.035, 0.035, 0.999, 183.516, 221.577)" fill="#212121"/>
    <path id="Trazado_994" data-name="Trazado 994" d="M2.139,0H98.158l27.225,135.628H-18.97Z" transform="translate(104.25 223.692)" fill="#333"/>
    <path id="Trazado_1022" data-name="Trazado 1022" d="M-9.629-32.255v16.53l7.062.855v1.678H-20.776v-1.678l5.035-.855V-53.155l-5.447-.823v-1.678H10.67v10.165H8.58L7.566-52.363a88.923,88.923,0,0,0-10.26-.443H-9.629v17.7H2.879l.982-5.067H5.793v13.047H3.861l-.982-5.13Z" transform="translate(138.824 309.829)" fill="#d9d9d9"/>
    <path id="Trazado_995" data-name="Trazado 995" d="M-.022,38.087S-1.2,21.448,6.123,9.546c3.715-6.042,9.94-10.879,20-11.029,28.916-.43,27.76,39.57,27.76,39.57" transform="translate(127.339 187.5)" fill="none" stroke="#212121" stroke-linecap="round" stroke-width="3"/>
    <path id="Trazado_1021" data-name="Trazado 1021" d="M-7.463-9.932H-8.3L-20-37.424v25.584l4.292.644v1.264h-10.9V-11.2l4.1-.644V-40.023l-4.1-.62v-1.264h9.681l10.4,24.321L4.817-41.906h9.156v1.264l-4.1.62v28.183l4.1.644v1.264H1V-11.2l4.292-.644V-37.424Z" transform="translate(179.785 338.616)" fill="#d9d9d9"/>
  </g>
</svg>
