<svg xmlns="http://www.w3.org/2000/svg" xmlns:xlink="http://www.w3.org/1999/xlink" width="709.543" height="709.543" viewBox="0 0 709.543 709.543"><defs><linearGradient id="a" x1="0.993" y1="0.482" x2="0.118" y2="0.477" gradientUnits="objectBoundingBox"><stop offset="0" stop-color="#c5ea75"/><stop offset="0.331" stop-color="#69c685"/><stop offset="0.657" stop-color="#40b28a"/><stop offset="1" stop-color="#189d8b"/></linearGradient><filter id="b" x="25.745" y="28.745" width="658.054" height="658.054" filterUnits="userSpaceOnUse"><feOffset dy="3" input="SourceAlpha"/><feGaussianBlur stdDeviation="3" result="c"/><feFlood flood-opacity="0.161"/><feComposite operator="in" in2="c"/><feComposite in="SourceGraphic"/></filter></defs><rect width="501.723" height="501.723" rx="15" transform="translate(709.543 354.772) rotate(135)" fill="url(#a)"/><g transform="matrix(1, 0, 0, 1, 0, 0)" filter="url(#b)"><path d="M311.366,631.393a12.915,12.915,0,0,1-9.193-3.808l-8.562-8.562c.242-2.876.511-5.866.8-8.889-7.859-8.573-45.36-54.253-11.676-111.7.043-.077,4.581-8.292,9.142-18.3,4.2-9.221,9.271-21.873,9.556-29.779s-3.361-15.473-6.47-20.43a57.428,57.428,0,0,0-6.885-8.951,15.261,15.261,0,0,1,.734-4.038,7.243,7.243,0,0,1,1.556-2.736,3.928,3.928,0,0,1,2.918-1.241c.043,0,.088,0,.133,0l-.013-.113c-.669-5.739-1.36-11.674,8.027-15.914,5.847,3.142,8.692,4.5,13.356,5.342a7.518,7.518,0,0,0,1.339.121,12.877,12.877,0,0,0,4.843-1.247l.389-.156a15.728,15.728,0,0,1,6.166-1.4c.209,0,.416,0,.617.014,3.033.138,9.324,2.443,16.027,5.872,7.635,3.906,14.45,8.58,18.7,12.826A80.574,80.574,0,0,0,376.2,404.987l.005-.007c.011-.014.018-.024.021-.029L373.553,418.3l.016-.008c1.006-.378,9.983-3.69,15.236-3.69,1.7,0,2.861.346,3.445,1.028-.4,6.256-3.769,12.706-7.666,20.175-5.741,11-12.886,24.693-13.7,43.932a94.18,94.18,0,0,0,14.933,36.2,119.07,119.07,0,0,0,21.971,24.42l-87.229,87.229A12.915,12.915,0,0,1,311.366,631.393ZM255.9,581.308-4.854,320.558a13,13,0,0,1,0-18.385L302.173-4.854a13,13,0,0,1,18.385,0L627.585,302.173a13,13,0,0,1,0,18.385L463.507,484.636c-2.763-3.788-5.324-7.519-7.8-11.126l-.005-.008-.021-.03c-10.259-14.944-19.95-29.058-40.627-42.242-10.331-21.75-23.714-36.466-37.882-52.047l-.006-.007c-5.888-6.474-11.977-13.169-17.923-20.5-1.1-.956-.449-9.079.535-21.376l0-.023v-.015c.838-10.449,1.88-23.453,2.253-37.189.353-13.033,1.135-22.755,1.825-31.332,1.422-17.683,2.362-29.365-1.825-52.383-6.362-16.511-14.142-29.117-23.787-38.538a71.438,71.438,0,0,0-29.234-17.273c-3.441-.208-6.716-.34-9.347-.446h-.007c-8.271-.336-14.246-.578-18.551-2.344-2.164-.888-5.7-3.921-10.182-7.759-7.527-6.452-17.835-15.288-28.886-20.147a11.438,11.438,0,0,0-5.256-1.38c-7.2,0-13.885,7.975-19.861,23.7a62.85,62.85,0,0,0-4.358,18.93,45.417,45.417,0,0,0,1.569,14.557c1.286,4.835,6.519,10.085,11.136,14.717,3.841,3.853,7.468,7.492,8.4,10.4a15.641,15.641,0,0,1-.183,6.9v.006c-.427,2.216-.831,4.308.184,7.048a13.342,13.342,0,0,0,3.929,5.479,19.1,19.1,0,0,1,4.443,5.682c5.749,11.84,7.679,24.384,5.58,36.278-.755,6.977-2.952,9.275-4.891,11.3-1.792,1.874-3.339,3.492-3.481,8.231a37.532,37.532,0,0,1-1.118,10.819,62.622,62.622,0,0,0-1.672,14.3c-.181,8.985-2.511,14.583-4.764,20a56.078,56.078,0,0,0-3.607,10.7,70.778,70.778,0,0,0-1.187,13.728v.017a83.8,83.8,0,0,1-1.6,16.951c-.827,3.948-2.339,9.077-4.09,15.016l0,.008c-3.994,13.542-8.965,30.394-9.86,46.369a139.327,139.327,0,0,0,4.2,32.234,142.049,142.049,0,0,0,9.453,26.134c7.315,15.381,15.828,26.561,21.461,33.959l.009.011c1.595,2.093,2.971,3.9,3.949,5.33,5.557,8.123,5.509,15.049,5.413,28.848-.031,4.368-.066,9.319.071,15.188v0l0,0,0,0Z" transform="translate(43.41 43.41)" fill="#101341"/></g></svg>